<svg xmlns="http://www.w3.org/2000/svg" width="150" height="150" viewBox="0 0 150 150">
    <g fill="none" fill-rule="nonzero">
        <path fill="#E0E0E0" d="M57.131 106l-5.775 6H47c-11.598 0-21-9.402-21-21V35c0-11.598 9.402-21 21-21h56c11.598 0 21 9.402 21 21v56c0 11.598-9.402 21-21 21h-3.877l-5.936-6H103c8.284 0 15-6.716 15-15V35c0-8.284-6.716-15-15-15H47c-8.284 0-15 6.716-15 15v56c0 8.284 6.716 15 15 15h10.131zm5.473-33.898c0 3.42 3.66 5.546 6.581 3.85l8.035-4.667 8.031-4.667c2.938-1.708 2.938-5.99 0-7.698l-8.031-4.667-8.034-4.667c-2.922-1.697-6.582.429-6.582 3.847v18.67zm-5.991-18.669c0-8.024 8.654-13.052 15.582-9.028l8.035 4.667 8.032 4.668c6.913 4.018 6.913 14.04 0 18.058l-8.033 4.668-8.035 4.668c-6.93 4.02-15.581-1.007-15.581-9.032V53.433z"/>
        <path fill="#9F9F9F" d="M78.133 111.794v21.266a3.441 3.441 0 0 1-3.446 3.436 3.441 3.441 0 0 1-3.446-3.436v-21.343l-8.358 8.335a3.453 3.453 0 0 1-4.874 0 3.43 3.43 0 0 1 0-4.86l14.225-14.185a3.453 3.453 0 0 1 4.883.009L91.235 115.2a3.43 3.43 0 0 1-.018 4.86 3.453 3.453 0 0 1-4.874-.018l-8.21-8.25z"/>
    </g>
</svg>
