<svg width="51" height="56" viewBox="0 0 51 56" fill="none" xmlns="http://www.w3.org/2000/svg">
<path fill-rule="evenodd" clip-rule="evenodd" d="M23.8233 6.01568V42.0881C23.8233 43.0095 24.5733 43.7594 25.4946 43.7594C26.416 43.7594 27.166 43.0095 27.166 42.0881V6.01568L36.4974 15.3472C37.151 16.0007 38.2116 16.0007 38.8651 15.3472C39.5186 14.6936 39.5401 13.6009 38.8437 12.958L25.4304 0.5625H24.8733L24.7447 0.691062C24.7126 0.723203 24.6697 0.766057 24.6376 0.798197C24.4876 0.948187 24.3376 1.09818 24.1876 1.24817C23.6948 1.74099 23.2019 2.2231 22.6984 2.7052C21.2628 4.10867 19.8058 5.50143 18.3594 6.89419C17.0845 8.12624 15.8096 9.34759 14.5454 10.5796C13.7205 11.3724 12.8955 12.1652 12.092 12.9688C11.4385 13.6223 11.4385 14.6829 12.092 15.3364C12.7456 15.99 13.8062 15.99 14.4597 15.3364L23.7912 6.00497L23.8233 6.01568ZM47.1467 52.0838H3.84262V27.4856C3.84262 26.5642 3.09267 25.8143 2.17131 25.8143C1.24995 25.8143 0.5 26.5642 0.5 27.4856V53.7658C0.5 54.6872 1.24995 55.4371 2.17131 55.4371H48.8287C49.7501 55.4371 50.5 54.6872 50.5 53.7658V27.4856C50.5 26.5642 49.7501 25.8143 48.8287 25.8143C47.9073 25.8143 47.1574 26.5642 47.1574 27.4856V52.0838H47.1467Z" fill="#1A1A1A"/>
</svg>
