<svg width="30" height="30" viewBox="0 0 30 30" fill="none" xmlns="http://www.w3.org/2000/svg">
<path d="M10.7032 9.29385C10.3127 8.90335 9.67952 8.90335 9.28897 9.29385C8.89847 9.6844 8.89847 10.3176 9.28897 10.7081L13.5819 15.001L9.28897 19.2939C8.89847 19.6844 8.89847 20.3176 9.28897 20.7081C9.67952 21.0986 10.3127 21.0986 10.7032 20.7081L14.9961 16.4152L19.289 20.7081C19.6795 21.0986 20.3127 21.0986 20.7032 20.7081C21.0937 20.3176 21.0937 19.6844 20.7032 19.2939L16.4103 15.001L20.7032 10.7081C21.0937 10.3176 21.0937 9.6844 20.7032 9.29385C20.3127 8.90335 19.6795 8.90335 19.289 9.29385L14.9961 13.5868L10.7032 9.29385Z" fill="#1A1A1A"/>
<path fill-rule="evenodd" clip-rule="evenodd" d="M8.2224 0C4.23215 0 0.779009 2.95301 0.399684 6.98195C-0.134662 12.6574 -0.132792 17.3133 0.402694 23.0111C0.781554 27.0424 4.23515 30 8.22875 30H21.7558C25.7309 30 29.1767 27.069 29.5729 23.0564C30.1409 17.3036 30.1421 12.6266 29.578 6.9328C29.1808 2.92383 25.7354 0 21.7656 0H8.2224ZM2.39087 7.16945C2.66822 4.2237 5.2071 2 8.2224 2H21.7656C24.7666 2 27.2976 4.2022 27.5877 7.13001C28.1388 12.6916 28.1378 17.2367 27.5826 22.8598C27.293 25.7927 24.76 28 21.7558 28H8.22875C5.21135 28 2.67107 25.773 2.39392 22.824C1.87006 17.2499 1.86834 12.7194 2.39087 7.16945Z" fill="#1A1A1A"/>
</svg>
