<svg width="27" height="30" viewBox="0 0 27 30" fill="none" xmlns="http://www.w3.org/2000/svg">
<path d="M25.2272 22.0086V4.18086C19.7709 5.05311 14.3568 5.91899 8.87769 6.79464V7.47689C8.87769 13.8218 8.86787 20.1677 8.88693 26.5123C8.89068 27.671 8.42613 28.5464 7.46581 29.1088C5.46034 30.2842 3.39544 30.3163 1.41303 29.0898C-0.471149 27.9242 -0.461023 25.7516 1.41476 24.5739C3.20774 23.4482 5.10433 23.4473 7.01941 24.2929C7.16089 24.3553 7.29543 24.4344 7.50071 24.5418V3.05466C13.8633 2.03607 20.1819 1.02436 26.5805 0V0.606313C26.5805 8.43218 26.5742 16.2573 26.588 24.0824C26.5898 25.1132 26.163 25.8739 25.3569 26.4592C23.5836 27.7478 20.7042 27.7402 18.9438 26.445C17.3524 25.274 17.3105 23.3228 18.9251 22.1873C20.7732 20.8869 22.7633 20.8756 24.7899 21.7834C24.9172 21.8405 25.0379 21.9104 25.227 22.008L25.2272 22.0086Z" fill="#1A1A1A"/>
</svg>
