<svg width="28" height="30" viewBox="0 0 28 30" fill="none" xmlns="http://www.w3.org/2000/svg">
<path d="M25.9313 22.0086V4.18086C20.475 5.05311 15.0609 5.91899 9.58179 6.79464V7.47689C9.58179 13.8218 9.57198 20.1677 9.59103 26.5124C9.59479 27.671 9.13023 28.5464 8.16991 29.1088C6.16444 30.2842 4.09954 30.3163 2.11713 29.0898C0.232952 27.9242 0.243078 25.7516 2.11887 24.5739C3.91184 23.4482 5.80844 23.4473 7.72351 24.2929C7.86499 24.3553 7.99953 24.4344 8.20481 24.5418V3.05466C14.5674 2.03607 20.886 1.02436 27.2846 0V0.606313C27.2846 8.43218 27.2783 16.2573 27.2921 24.0824C27.2939 25.1132 26.8671 25.8739 26.061 26.4592C24.2877 27.7478 21.4083 27.7402 19.6479 26.445C18.0565 25.274 18.0146 23.3228 19.6292 22.1873C21.4773 20.8869 23.4674 20.8756 25.494 21.7834C25.6213 21.8405 25.742 21.9104 25.9311 22.008L25.9313 22.0086Z" fill="url(#paint0_linear_21103_274789)"/>
<defs>
<linearGradient id="paint0_linear_21103_274789" x1="1.90872" y1="4.08071" x2="29.1577" y2="9.06876" gradientUnits="userSpaceOnUse">
<stop offset="0.036" stop-color="#48CCE0"/>
<stop offset="0.328" stop-color="#505ADD"/>
<stop offset="0.641" stop-color="#BE40C0"/>
<stop offset="0.958" stop-color="#FBA82B"/>
</linearGradient>
</defs>
</svg>
