<svg width="30" height="30" viewBox="0 0 30 30" fill="none" xmlns="http://www.w3.org/2000/svg">
<path d="M29.2624 15.6114L14.4939 0.839202C14.0329 0.37758 13.4096 0.115044 12.7573 0.107796L2.52961 0H2.50063C1.83501 0 1.19723 0.266015 0.729203 0.738646C0.260919 1.21157 0.00127591 1.85199 0.0079376 2.51735L0.116023 12.7658C0.122978 13.4181 0.385517 14.0414 0.847139 14.5024L15.603 29.2709C16.0704 29.7378 16.7039 30 17.3646 30C18.025 30 18.6587 29.7377 19.1258 29.2709L29.2623 19.1552C29.7291 18.6878 29.9914 18.0544 29.9914 17.394C29.9914 16.7333 29.7291 16.0998 29.2623 15.6324L29.2624 15.6114ZM28.0867 17.9626L17.9503 28.0991C17.7944 28.2553 17.5832 28.3428 17.3626 28.3428C17.1421 28.3428 16.9306 28.2553 16.7747 28.0991L2.00619 13.3395C1.85203 13.1862 1.76423 12.979 1.76104 12.762L1.65295 2.51351C1.65295 2.0545 2.02503 1.68273 2.48374 1.68273L12.7322 1.79081C12.9487 1.79255 13.1559 1.8792 13.3097 2.03162L28.0908 16.7875C28.247 16.9434 28.3345 17.1549 28.3345 17.3754C28.3345 17.596 28.247 17.8075 28.0908 17.9634L28.0867 17.9626Z" fill="url(#paint0_linear_21103_274863)"/>
<path d="M6.68376 6.69215C5.919 7.45713 5.48926 8.49488 5.48926 9.57693C5.48955 10.6587 5.91929 11.6961 6.68428 12.4611C7.44927 13.2262 8.48702 13.6558 9.56876 13.6558C10.6508 13.6558 11.6882 13.2261 12.4532 12.4611C13.2183 11.6961 13.6483 10.6587 13.6483 9.57693C13.6486 8.49488 13.2188 7.4572 12.4541 6.69215C11.6885 5.92769 10.6507 5.49854 9.56869 5.49854C8.48694 5.49854 7.44926 5.9277 6.68361 6.69215H6.68376ZM11.2536 11.262C10.7213 11.7926 9.97277 12.0455 9.22774 11.9468C8.48301 11.8479 7.82634 11.4081 7.45112 10.7569C7.07585 10.1058 7.02485 9.31732 7.31289 8.62326C7.60093 7.92894 8.19553 7.4085 8.92149 7.21436C9.64768 7.02021 10.4225 7.17466 11.0187 7.63223C11.6147 8.09008 11.9639 8.79891 11.9639 9.55024C11.9656 10.193 11.7097 10.8094 11.2536 11.262Z" fill="url(#paint1_linear_21103_274863)"/>
<defs>
<linearGradient id="paint0_linear_21103_274863" x1="1.36207" y1="4.08071" x2="31.8267" y2="10.3705" gradientUnits="userSpaceOnUse">
<stop offset="0.036" stop-color="#48CCE0"/>
<stop offset="0.328" stop-color="#505ADD"/>
<stop offset="0.641" stop-color="#BE40C0"/>
<stop offset="0.958" stop-color="#FBA82B"/>
</linearGradient>
<linearGradient id="paint1_linear_21103_274863" x1="5.85777" y1="6.60812" x2="14.1472" y2="8.32087" gradientUnits="userSpaceOnUse">
<stop offset="0.036" stop-color="#48CCE0"/>
<stop offset="0.328" stop-color="#505ADD"/>
<stop offset="0.641" stop-color="#BE40C0"/>
<stop offset="0.958" stop-color="#FBA82B"/>
</linearGradient>
</defs>
</svg>
