<svg width="42" height="30" viewBox="0 0 42 30" fill="none" xmlns="http://www.w3.org/2000/svg">
<path d="M40.0757 5.15625C39.7021 3.09448 37.9224 1.59302 35.8569 1.12427C32.7661 0.46875 27.0459 0 20.8569 0C14.6716 0 8.85986 0.46875 5.76538 1.12427C3.70361 1.59302 1.92017 2.99927 1.54663 5.15625C1.16943 7.5 0.795898 10.7812 0.795898 15C0.795898 19.2188 1.16943 22.5 1.63818 24.8438C2.01538 26.9055 3.79517 28.407 5.85693 28.8757C9.13818 29.5313 14.7632 30 20.9521 30C27.1411 30 32.7661 29.5313 36.0474 28.8757C38.1091 28.407 39.8889 27.0007 40.2661 24.8438C40.6396 22.5 41.1084 19.1235 41.2036 15C41.0132 10.7812 40.5444 7.5 40.0757 5.15625ZM15.7959 21.5625V8.4375L27.2327 15L15.7959 21.5625Z" fill="url(#paint0_linear_21103_275279)"/>
<defs>
<linearGradient id="paint0_linear_21103_275279" x1="2.62098" y1="4.08071" x2="42.3513" y2="15.1353" gradientUnits="userSpaceOnUse">
<stop offset="0.036" stop-color="#48CCE0"/>
<stop offset="0.328" stop-color="#505ADD"/>
<stop offset="0.641" stop-color="#BE40C0"/>
<stop offset="0.958" stop-color="#FBA82B"/>
</linearGradient>
</defs>
</svg>
