<svg width="26" height="32" viewBox="0 0 26 32" fill="none" xmlns="http://www.w3.org/2000/svg">
<path d="M24.2863 5.62526C20.5811 5.32211 17.1116 3.73895 14.4842 1.11158L13.8105 0.404211C13.5411 0.134737 13.1705 0 12.8 0C12.4295 0 12.0589 0.134737 11.7895 0.404211L11.1158 1.11158C8.48842 3.73895 5.01895 5.32211 1.31368 5.62526C0.572631 5.69263 0 6.29895 0 7.04V11.1158C0 19.6716 4.64842 27.6211 12.0926 31.8316C12.2947 31.9663 12.5642 32 12.8 32C13.0358 32 13.2716 31.9326 13.5074 31.8316C20.9516 27.6211 25.6 19.6716 25.6 11.1158V7.04C25.6 6.29895 25.0274 5.69263 24.2863 5.62526ZM18.9642 13.2716L12.6653 20.1095C12.3958 20.3789 12.0253 20.5474 11.6547 20.5811H11.6211C11.2505 20.5811 10.88 20.4463 10.6105 20.1768L7.07368 16.5726C6.53474 16.0337 6.53474 15.1242 7.07368 14.5853C7.61263 14.0463 8.52211 14.0463 9.06105 14.5853L11.5874 17.1116L16.8758 11.3516C17.4147 10.7789 18.2905 10.7453 18.8632 11.2505C19.4358 11.7895 19.4695 12.6989 18.9642 13.2716Z" fill="url(#paint0_linear_22261_81181)"/>
<defs>
<linearGradient id="paint0_linear_22261_81181" x1="1.15627" y1="4.35276" x2="27.5548" y2="8.7154" gradientUnits="userSpaceOnUse">
<stop offset="0.036" stop-color="#48CCE0"/>
<stop offset="0.328" stop-color="#505ADD"/>
<stop offset="0.641" stop-color="#BE40C0"/>
<stop offset="0.958" stop-color="#FBA82B"/>
</linearGradient>
</defs>
</svg>
