<svg width="41" height="30" viewBox="0 0 41 30" fill="none" xmlns="http://www.w3.org/2000/svg">
<path d="M39.3677 5.15625C38.9941 3.09448 37.2144 1.59302 35.1489 1.12427C32.0581 0.46875 26.3379 0 20.1489 0C13.9636 0 8.15186 0.46875 5.05737 1.12427C2.99561 1.59302 1.21216 2.99927 0.838623 5.15625C0.461426 7.5 0.0878906 10.7812 0.0878906 15C0.0878906 19.2188 0.461426 22.5 0.930176 24.8438C1.30737 26.9055 3.08716 28.407 5.14893 28.8757C8.43018 29.5313 14.0552 30 20.2441 30C26.4331 30 32.0581 29.5313 35.3394 28.8757C37.4011 28.407 39.1809 27.0007 39.5581 24.8438C39.9316 22.5 40.4004 19.1235 40.4956 15C40.3052 10.7812 39.8364 7.5 39.3677 5.15625ZM15.0879 21.5625V8.4375L26.5247 15L15.0879 21.5625Z" fill="#CA0000"/>
<path d="M15 8.5L26.5 15L15 21.5V8.5Z" fill="white"/>
</svg>
